PathFileType	4	(X/Y/Z)	walk-thru1-1-TP.trc
DataRate	CameraRate	NumFrames	NumMarkers	Units	OrigDataRate	OrigDataStartFrame	OrigNumFrames
120.00	120.00	       5	60	mm	120.00	271	       432
Frame#	Time	Top.Head			Front.Head			Rear.Head			Jaw			C7			R.Clavicle			L.Clavicle			R.Shoulder			L.Shoulder			R.Scapula			L.Scapula			R.Scap.Inf			R.Biceps.Lateral			R.Elbow			R.Elbow.Medial			R.Forearm			R.Ulna			R.Radius			R.Wrist			R.Thumb.M1			R.Thumb.M2			R.Thumb.M3			R.Finger3.M1			R.Finger3.M2			R.Finger3.M3			L.Biceps.Lateral			L.Elbow			L.Elbow.Medial			L.Forearm			L.Ulna			L.Radius			L.Wrist			L.Thumb.M1			L.Thumb.M2			L.Thumb.M3			L.Finger3.M1			L.Finger3.M2			L.Finger3.M3			V.Sacral			R.ASIS			L.ASIS			R.Thigh			R.Thigh.Front			R.Knee			R.Knee.Medial			R.Shank			R.Ankle			R.Ankle.Medial			R.Heel			R.Toe			R.MedFoot			L.Thigh			L.Knee			L.Knee.Medial			L.Shank			L.Ankle			L.Ankle.Medial			L.Heel			L.Toe			L.MedFoot			V_mid_ASIS			V_R_Knee_JC			V_L_Knee_JC			V_R_Elbow_JC			V_L_Elbow_JC			V_R_Ankle_JC			V_L_Ankle_JC			V_R_Wrist_JC			V_L_Wrist_JC			V_R_ScaTrpz_1stMC_JC			V_R_1stMC_1stPP_JC			V_R_1stPP_1stDP_JC			V_R_LunCap_3rdMC_JC			V_R_3rdMC_3rdPP_JC			V_R_3rdPP_3rdMP_JC			V_R_3rdMP_3rdDP_JC			V_L_ScaTrpz_1stMC_JC			V_L_1stMC_1stPP_JC			V_L_1stPP_1stDP_JC			V_L_LunCap_3rdMC_JC			V_L_3rdMC_3rdPP_JC			V_L_3rdPP_3rdMP_JC			V_L_3rdMP_3rdPP_JC			V_ROOT_JC			V_R_Hip_JC			V_L_Hip_JC			V_R_GlenHum_JC			V_L_GlenHum_JC			V_ForeHead_Ctr			V_Vertex			V_Sagit_Lambdoid_Suture			V_R_FrontoTemp			V_L_FrontoTemporal			V_R_ParietalOccip			V_L_ParietalOcciptal			V_R_Temporal			V_L_Temporal			V_mid_FrontRearHead			V_mid_RLGlenHumCtrs			V_C7_vert			V_C1_vert			V_Mid_Hip			
		X1	Y1	Z1	X2	Y2	Z2	X3	Y3	Z3	X4	Y4	Z4	X5	Y5	Z5	X6	Y6	Z6	X7	Y7	Z7	X8	Y8	Z8	X9	Y9	Z9	X10	Y10	Z10	X11	Y11	Z11	X12	Y12	Z12	X13	Y13	Z13	X14	Y14	Z14	X15	Y15	Z15	X16	Y16	Z16	X17	Y17	Z17	X18	Y18	Z18	X19	Y19	Z19	X20	Y20	Z20	X21	Y21	Z21	X22	Y22	Z22	X23	Y23	Z23	X24	Y24	Z24	X25	Y25	Z25	X26	Y26	Z26	X27	Y27	Z27	X28	Y28	Z28	X29	Y29	Z29	X30	Y30	Z30	X31	Y31	Z31	X32	Y32	Z32	X33	Y33	Z33	X34	Y34	Z34	X35	Y35	Z35	X36	Y36	Z36	X37	Y37	Z37	X38	Y38	Z38	X39	Y39	Z39	X40	Y40	Z40	X41	Y41	Z41	X42	Y42	Z42	X43	Y43	Z43	X44	Y44	Z44	X45	Y45	Z45	X46	Y46	Z46	X47	Y47	Z47	X48	Y48	Z48	X49	Y49	Z49	X50	Y50	Z50	X51	Y51	Z51	X52	Y52	Z52	X53	Y53	Z53	X54	Y54	Z54	X55	Y55	Z55	X56	Y56	Z56	X57	Y57	Z57	X58	Y58	Z58	X59	Y59	Z59	X60	Y60	Z60	

271	2.250	-255.52905	45.64401	1787.91321	-356.53860	37.03555	1674.50891	-129.18048	39.37234	1690.68066	-310.29977	35.95630	1510.48767	-114.81915	32.48120	1555.06873	-208.01820	152.45567	1457.65491	-224.90611	-74.91608	1463.72522	-160.66844	238.26457	1452.97339	-157.45461	-172.36086	1476.27209	-59.21103	119.26323	1472.11890	-64.61935	-47.10491	1478.51221	-10.39929	125.61239	1384.95337	-100.49098	291.56628	1276.77209	-59.08915	304.82410	1125.74951	-48.49954	213.79204	1107.70190	-148.00246	261.97034	1009.08765	-108.07073	301.41040	908.60449	-173.82690	244.81070	877.19415	-165.25723	282.97543	830.35492	-184.55359	239.34406	845.01617	-221.92926	209.05740	803.94287	-258.09161	207.66907	776.06464	-205.70627	286.56125	759.53741	-223.78299	249.24573	707.32996	-217.24788	203.45769	680.87451	-135.44855	-236.47083	1325.87512	-128.30461	-284.23502	1149.68872	-88.67988	-217.56372	1125.52759	-207.68991	-256.66452	1053.84216	-166.97675	-278.42758	958.17682	-242.67679	-225.86835	917.64569	-241.59438	-258.35263	858.92981	-262.09360	-212.23946	857.61627	-267.52411	-172.93546	811.38361	-285.08698	-175.07666	753.35968	-269.97507	-267.89203	787.74066	-270.03461	-244.11980	731.89178	-257.08054	-221.84297	686.07489	-16.48931	16.81419	1080.15930	-112.01817	206.06903	1020.70239	-115.94360	-168.26125	1023.02795	-246.99695	159.84615	631.56958	-336.47656	70.90349	581.01855	-297.35175	128.83331	512.76770	-291.18423	14.68902	513.50348	-338.45837	86.22628	335.72214	-280.98764	112.07635	70.20601	-316.91779	17.69037	95.89915	-229.55106	50.70357	43.00904	-461.04715	76.53099	56.07600	-396.13776	35.60556	73.52588	-87.55941	-157.10602	645.01343	-69.94463	-137.47298	489.84396	-82.46452	-20.92535	486.07013	3.70302	-83.58904	302.06592	192.51585	-94.86832	120.06450	146.15260	-4.40690	146.17252	243.34628	-32.10979	130.20506	35.91052	-44.43964	45.86164	80.26985	-19.33115	80.64182																																																																																																																															
272	2.258	-263.77774	47.22238	1788.50659	-363.03830	37.42288	1674.95020	-136.35776	40.64196	1691.60498	-317.23749	38.16085	1510.99524	-123.02873	35.09810	1555.31543	-214.36868	154.78014	1458.78027	-231.56859	-73.69440	1464.64343	-168.14900	241.39970	1453.31079	-164.76845	-170.17088	1477.38464	-67.09934	120.48714	1472.19177	-71.59853	-46.23361	1478.73584	-17.26296	126.87116	1385.72559	-108.37933	293.42044	1276.81396	-67.22742	305.99014	1126.40479	-57.53813	214.73376	1109.25818	-155.79283	262.61285	1009.56805	-115.98782	302.25079	908.99701	-182.94627	245.86975	878.92242	-173.04132	284.12656	830.05072	-193.75429	240.68013	845.72162	-229.45824	210.61967	803.77246	-267.09824	208.96188	776.85388	-215.06679	287.98837	760.28613	-232.88885	249.49367	708.15881	-226.11754	205.16219	681.77661	-141.67435	-235.10469	1326.92224	-134.36636	-281.05441	1150.88550	-94.69784	-215.16058	1126.35510	-211.47675	-255.85257	1053.58057	-169.93407	-277.17328	958.93988	-246.20399	-225.82561	917.55859	-244.23677	-258.46564	858.61737	-263.05527	-212.72356	856.63550	-266.39441	-173.53880	810.66565	-285.81116	-176.75520	752.80664	-270.28046	-268.09836	787.21417	-269.82916	-245.78258	730.71997	-256.21893	-223.01653	685.21271	-23.66370	17.98386	1080.91248	-114.60326	208.84544	1020.49451	-122.75984	-166.34177	1023.81732	-256.12070	159.77229	632.76294	-343.94266	72.33186	581.16077	-303.81436	130.58455	513.14063	-297.53781	15.62214	513.96692	-342.27603	85.68066	335.49670	-282.17038	112.42579	69.36378	-317.09631	17.56033	96.23303	-229.44917	51.54892	43.14304	-463.06262	74.81762	54.74680	-396.54309	34.81654	72.98124	-96.85124	-156.82417	644.61823	-80.67316	-139.00771	489.11865	-94.23572	-22.74024	485.26791	-3.95276	-84.43216	303.16394	189.28773	-95.17272	124.80062	140.60297	-4.35908	149.62706	238.78957	-32.29468	137.25179	35.73393	-44.06617	45.74869	77.57583	-19.95597	81.14606																																																																																																																															
273	2.267	-270.40225	48.82984	1789.63159	-371.01614	40.09344	1675.30676	-143.08386	42.75218	1692.34729	-324.03198	38.96164	1511.92700	-129.71692	35.96503	1556.64575	-221.24673	155.33731	1459.90002	-237.96390	-71.94748	1465.08716	-175.40289	240.95033	1454.50244	-172.07283	-168.75438	1478.11157	-73.99126	120.87312	1472.20837	-78.93288	-45.49467	1479.65039	-24.42286	129.34544	1385.58618	-116.88720	295.36252	1278.37476	-74.85507	307.03406	1126.17651	-65.43167	216.43489	1109.00537	-164.53241	264.75479	1009.12787	-124.79285	303.56506	909.48792	-190.52451	246.83266	879.19019	-181.91547	285.25671	831.29193	-201.39391	241.45401	846.28510	-237.95329	210.87083	804.97583	-275.73410	208.98662	777.78333	-223.19708	287.49637	760.95343	-241.65996	250.21324	708.43842	-234.76213	206.22028	682.43079	-147.57367	-233.37552	1327.15369	-138.79086	-279.05627	1152.29443	-100.93623	-211.42010	1128.63416	-216.35049	-254.44630	1053.76428	-171.98228	-275.39529	959.21857	-248.40749	-225.84010	917.23883	-245.87054	-258.38055	858.14349	-265.51108	-212.65683	856.35620	-270.29391	-174.95149	809.14484	-286.34341	-176.50954	750.72089	-270.94446	-268.60706	786.73206	-269.78845	-246.21536	729.98553	-255.92523	-223.23213	684.94574	-31.98563	19.84835	1081.34229	-122.99130	210.11728	1022.01880	-129.82407	-164.76222	1024.19861	-264.79053	160.15977	634.46808	-350.11304	72.42673	580.92297	-310.14594	129.63914	512.38214	-303.51840	17.41355	513.48804	-345.91931	86.68585	334.06998	-282.20883	112.21122	69.28542	-317.43793	17.21802	95.97889	-229.43166	51.68913	43.32302	-464.39096	74.21543	54.04823	-396.92883	33.97116	73.03073	-106.71227	-157.81134	644.91229	-90.91988	-139.94684	489.24033	-105.59171	-24.30252	484.20349	-12.12364	-86.25693	304.26999	184.79474	-95.92061	129.88864	134.94882	-5.50642	153.10826	233.39217	-32.27942	144.55566	35.48370	-43.82673	45.88662	74.81375	-19.97769	81.78010																																																																																																																															
274	2.275	-278.32440	49.52991	1790.51245	-377.44363	41.94224	1675.99902	-149.44756	45.31968	1693.59241	-331.83801	38.79545	1512.58679	-137.01505	37.81627	1557.39221	-229.60660	156.51826	1460.00903	-245.06703	-70.69321	1465.91321	-182.82155	242.42401	1454.47876	-179.04131	-168.83633	1478.67773	-80.82498	122.95125	1473.00720	-85.70480	-43.81674	1480.41467	-31.67995	129.41428	1385.82715	-123.64261	295.69864	1278.08203	-82.80062	309.00919	1126.52930	-72.12185	217.61220	1110.12720	-172.85370	264.45935	1010.43640	-133.36278	304.98981	910.95233	-198.81303	247.85565	879.97046	-190.50723	285.53070	831.77252	-209.39305	242.09450	846.46136	-246.12654	211.80292	805.07220	-284.25571	209.98727	778.41541	-232.16473	290.28387	761.87579	-249.61082	251.76692	709.82892	-242.66263	206.98276	682.85278	-154.27867	-231.24394	1328.71375	-144.31227	-277.82169	1153.01794	-101.58271	-211.08530	1132.34241	-219.25378	-253.41251	1054.06702	-175.38545	-275.68280	960.08875	-251.29155	-225.48833	916.87640	-247.25714	-257.69803	857.97418	-267.10449	-212.45480	855.51605	-271.40683	-174.74689	808.91504	-287.22046	-176.55582	750.32642	-271.74612	-268.70041	786.06989	-269.06500	-246.42514	729.77991	-255.22171	-224.24152	684.11145	-38.81671	21.80229	1081.18823	-132.07599	211.90768	1021.26459	-136.09380	-163.09586	1024.16101	-270.27771	160.41869	634.98773	-355.33838	73.92144	581.37433	-315.94672	129.94020	511.88019	-309.32214	17.79653	513.50604	-349.86743	85.97803	333.40271	-282.58578	111.67240	68.98383	-318.42355	16.93291	95.25126	-229.44147	51.64324	43.53159	-464.90811	73.83749	52.81862	-397.29388	33.79935	71.66476	-116.59778	-159.10300	644.81305	-103.19429	-142.55397	489.06284	-119.06835	-26.88596	483.56854	-20.55087	-87.49815	305.30734	179.70287	-96.43775	135.37646	129.17564	-6.78643	157.30173	227.31300	-32.49128	151.71819	34.70107	-44.02428	46.07751	70.83266	-20.60458	83.08821																																																																																																																															
275	2.283	-284.51715	52.12145	1790.31128	-384.14792	42.79804	1676.14111	-156.55913	46.13893	1693.96716	-338.10355	41.35418	1511.63391	-142.84390	40.21664	1558.26465	-237.25346	158.63602	1460.27551	-251.84804	-70.09545	1467.44751	-190.79495	243.06725	1455.48193	-185.16154	-165.85027	1480.34058	-88.40703	125.48499	1474.29102	-91.84499	-42.94265	1481.28601	-39.22656	131.34418	1386.26355	-131.85493	297.07968	1278.59924	-90.07137	311.49762	1127.13062	-81.15817	219.97414	1110.94446	-180.25832	267.23312	1011.40277	-141.96616	305.95847	910.92035	-207.82034	249.64760	881.37408	-199.23001	286.18622	832.52368	-217.88152	242.71516	847.55884	-254.63222	212.92076	805.80219	-292.89157	210.60086	779.55829	-241.26108	289.98022	762.17615	-259.17206	251.93936	709.71326	-251.78535	207.22264	683.89014	-160.25706	-231.12386	1328.86487	-148.95456	-275.93326	1155.06519	-106.00713	-208.58597	1133.35303	-223.44301	-252.84615	1054.32324	-178.45657	-274.06104	961.83380	-253.93788	-225.16615	916.81696	-248.50879	-257.49692	858.00482	-269.23343	-211.90683	854.76477	-271.70819	-174.36279	808.28955	-287.96759	-177.45734	748.87622	-272.36172	-269.25464	785.79596	-269.22482	-246.50699	729.42664	-255.00398	-224.46562	684.05701	-46.01360	22.69053	1081.10315	-138.88283	213.20235	1022.20819	-142.79797	-161.64484	1024.52039	-275.50284	161.07376	634.48077	-360.16705	73.61279	580.82397	-320.51776	130.34126	511.65704	-313.25027	18.42742	513.40155	-352.64926	86.00708	332.50165	-283.54636	111.35145	69.81673	-318.83978	15.77288	94.22769	-229.54198	51.34708	43.65815	-465.98792	73.34816	51.75403	-396.76730	32.99465	70.29314	-126.86201	-159.93408	643.79071	-115.21016	-145.11481	488.56549	-132.21466	-28.49539	482.94089	-29.79599	-88.86740	306.71744	174.00673	-97.36611	141.83669	121.45000	-8.81828	160.97850	220.45978	-33.88214	159.27003	33.97568	-44.03410	46.16958	67.54282	-20.39322	84.62360																																																																																																																															
